<?xml version="1.0" encoding="iso-8859-1"?>
<!-- Generator: Adobe Illustrator 16.0.0, SVG Export Plug-In . SVG Version: 6.00 Build 0)  -->
<!DOCTYPE svg PUBLIC "-//W3C//DTD SVG 1.1//EN" "http://www.w3.org/Graphics/SVG/1.1/DTD/svg11.dtd">
<svg version="1.1" id="Layer_1" xmlns="http://www.w3.org/2000/svg" xmlns:xlink="http://www.w3.org/1999/xlink" x="0px" y="0px"
	 width="200px" height="200px" viewBox="0 0 200 200" style="enable-background:new 0 0 200 200;" xml:space="preserve">
<g id="Logo">
	<g id="_x32_px_Stroke" style="display:none;">
		<path style="display:inline;fill:#A9A9A9;" d="M198,2v196H2V2H198 M200,0H0v200h200V0L200,0z"/>
	</g>
	<g>
		<path style="fill:#040404;" d="M38.553,117.545c0.428-0.154,0.938,0.244,0.861,0.701c-0.017,0.546-0.791,0.824-1.145,0.404
			C37.913,118.323,38.079,117.655,38.553,117.545L38.553,117.545z"/>
		<path style="fill:#040404;" d="M86.98,117.93c0.624-0.482,1.47-0.438,2.208-0.326c-0.048,0.285-0.103,0.568-0.156,0.854
			c-0.468-0.084-1.011-0.19-1.423,0.113c-0.428,0.355-0.41,0.962-0.425,1.465c0.502,0.011,1.005,0.005,1.507,0.008
			c-0.001,0.286-0.001,0.573-0.001,0.861c-0.498,0.003-0.996,0.002-1.494,0.002c-0.002,1.843,0,3.684-0.001,5.526
			c-0.309-0.002-0.615,0-0.923,0c-0.003-1.84-0.006-3.68,0.001-5.52c-0.449-0.01-0.898-0.007-1.348-0.008
			c-0.002-0.289-0.002-0.577,0-0.864c0.448,0,0.896,0.002,1.346-0.006C86.228,119.287,86.356,118.428,86.98,117.93L86.98,117.93z"/>
		<path style="fill:#040404;" d="M104.725,117.534c0.311,0,0.617,0,0.928,0c0,1.161-0.006,2.321,0.006,3.481
			c0.503-0.683,1.316-1.151,2.177-1.127c0.72-0.013,1.513,0.217,1.938,0.836c0.498,0.7,0.443,1.604,0.447,2.418
			c0,1.098,0,2.193,0,3.291c-0.312,0.004-0.621-0.005-0.93-0.005c0.001-1.174,0.005-2.35-0.002-3.522
			c-0.023-0.616-0.055-1.313-0.512-1.782c-0.645-0.562-1.682-0.494-2.328,0.033c-0.594,0.475-0.788,1.269-0.795,1.997
			c-0.008,1.092-0.002,2.184-0.002,3.274c-0.311-0.003-0.619,0.011-0.928,0.003C104.725,123.467,104.725,120.501,104.725,117.534
			L104.725,117.534z"/>
		<path style="fill:#040404;" d="M112.885,117.58c0.439-0.24,1.035,0.174,0.951,0.672c-0.009,0.514-0.693,0.781-1.072,0.461
			C112.375,118.434,112.449,117.777,112.885,117.58L112.885,117.58z"/>
		<path style="fill:#040404;" d="M154.93,117.579c0.446-0.239,1.033,0.183,0.95,0.683c-0.032,0.543-0.804,0.807-1.147,0.383
			C154.402,118.344,154.518,117.741,154.93,117.579L154.93,117.579z"/>
		<path style="fill:#040404;" d="M151.248,117.632c0.309-0.001,0.617-0.015,0.928-0.008c0,2.937,0,5.872,0,8.81
			c-0.308-0.002-0.615,0-0.923,0.002C151.245,123.501,151.256,120.564,151.248,117.632L151.248,117.632z"/>
		<path style="fill:#040404;" d="M41.965,120.484c0.674-0.598,1.647-0.684,2.5-0.531c0.624,0.113,1.15,0.527,1.455,1.076
			c-0.273,0.197-0.554,0.384-0.837,0.565c-0.41-0.895-1.672-1.145-2.414-0.522c-0.39,0.336-0.338,1.043,0.127,1.283
			c0.855,0.468,1.956,0.332,2.725,0.98c0.892,0.704,0.751,2.277-0.232,2.835c-0.64,0.446-1.448,0.367-2.186,0.354
			c-0.803-0.017-1.512-0.534-1.95-1.18c0.264-0.189,0.535-0.369,0.809-0.546c0.529,0.892,1.76,1.23,2.659,0.703
			c0.491-0.248,0.681-0.995,0.24-1.379c-0.498-0.413-1.178-0.44-1.775-0.611c-0.648-0.146-1.342-0.479-1.595-1.14
			C41.292,121.727,41.428,120.938,41.965,120.484L41.965,120.484z"/>
		<path style="fill:#040404;" d="M48.412,120.949c1.231-1.428,3.75-1.432,4.94,0.054c-0.251,0.197-0.512,0.38-0.766,0.576
			c-0.713-1.08-2.398-1.106-3.263-0.205c-1.005,1.056-0.943,3.002,0.216,3.923c0.907,0.713,2.387,0.594,3.06-0.388
			c0.254,0.192,0.51,0.383,0.759,0.584c-0.508,0.53-1.165,1.005-1.925,1.028c-0.762,0.035-1.582,0.071-2.253-0.357
			C47.391,125.16,47.123,122.453,48.412,120.949L48.412,120.949z"/>
		<path style="fill:#040404;" d="M78.873,120.111c0.53-0.271,1.148-0.244,1.722-0.17c-0.05,0.309-0.114,0.611-0.172,0.918
			c-0.404-0.047-0.826-0.08-1.214,0.068c-0.759,0.274-1.258,1.069-1.269,1.862c-0.009,1.216,0.011,2.433-0.009,3.647
			c-0.307-0.004-0.613-0.008-0.919-0.008c-0.013-2.129,0.043-4.261-0.065-6.389c0.31-0.002,0.62,0,0.931,0
			c0.001,0.363,0,0.727-0.006,1.092C78.117,120.718,78.421,120.314,78.873,120.111L78.873,120.111z"/>
		<path style="fill:#040404;" d="M98.648,120.538c0.67-0.644,1.683-0.744,2.56-0.583c0.619,0.117,1.147,0.525,1.45,1.074
			c-0.271,0.197-0.553,0.384-0.836,0.565c-0.41-0.891-1.66-1.142-2.405-0.532c-0.399,0.332-0.352,1.047,0.117,1.293
			c0.898,0.492,2.093,0.322,2.851,1.097c0.491,0.471,0.567,1.233,0.359,1.854c-0.285,0.793-1.16,1.23-1.967,1.228
			c-0.597,0-1.232,0.062-1.783-0.218c-0.453-0.209-0.819-0.563-1.104-0.969c0.264-0.191,0.536-0.371,0.81-0.548
			c0.538,0.917,1.832,1.243,2.726,0.661c0.446-0.273,0.59-0.979,0.17-1.339c-0.498-0.412-1.18-0.438-1.778-0.61
			c-0.646-0.146-1.339-0.48-1.589-1.14C98.041,121.749,98.154,120.996,98.648,120.538L98.648,120.538z"/>
		<path style="fill:#040404;" d="M125.447,121.016c0.457-0.578,1.107-1.029,1.855-1.107c0.748-0.071,1.596,0.064,2.129,0.639
			c0.461,0.51,0.578,1.219,0.588,1.885c0.004,1.332-0.006,2.666,0.004,4c-0.312-0.008-0.623,0.014-0.932,0.004
			c-0.004-1.218,0.006-2.434-0.004-3.648c-0.027-0.598-0.092-1.276-0.561-1.706c-0.725-0.563-1.846-0.409-2.461,0.246
			c-0.485,0.519-0.604,1.26-0.617,1.944c-0.006,1.055,0.005,2.109-0.004,3.164c-0.309,0-0.614-0.002-0.922-0.002
			c-0.035-2.13,0.074-4.266-0.065-6.39c0.321,0,0.646-0.002,0.972,0.001C125.449,120.366,125.451,120.691,125.447,121.016
			L125.447,121.016z"/>
		<path style="fill:#040404;" d="M144.166,121.025c0.459-0.601,1.135-1.053,1.898-1.123c0.74-0.062,1.582,0.08,2.104,0.658
			c0.48,0.539,0.566,1.291,0.575,1.983c-0.003,1.298,0.003,2.594-0.005,3.89c-0.309,0-0.613-0.002-0.922,0
			c-0.002-1.178,0.004-2.355-0.002-3.531c-0.029-0.629-0.06-1.35-0.549-1.812c-0.756-0.61-1.975-0.407-2.562,0.341
			c-0.42,0.51-0.52,1.192-0.529,1.834c-0.004,1.055,0.002,2.109-0.001,3.168c-0.31-0.002-0.616,0-0.923,0
			c-0.038-2.13,0.068-4.265-0.066-6.392c0.321,0,0.644,0,0.967,0C144.174,120.369,144.174,120.697,144.166,121.025L144.166,121.025z
			"/>
		<path style="fill:#040404;" d="M159.077,121.03c0.509-0.72,1.372-1.188,2.262-1.14c0.681,0.002,1.421,0.229,1.834,0.806
			c0.423,0.564,0.46,1.298,0.472,1.976c0,1.254,0,2.508,0,3.76c-0.311,0-0.617,0.002-0.924,0.004
			c-0.017-1.211,0.02-2.425-0.018-3.636c-0.021-0.612-0.08-1.319-0.582-1.743c-0.777-0.574-1.98-0.354-2.551,0.411
			c-0.371,0.478-0.481,1.097-0.494,1.688c-0.004,1.092-0.002,2.185-0.002,3.276c-0.311,0.006-0.62-0.004-0.93,0
			c-0.023-2.131,0.067-4.263-0.061-6.389c0.32,0,0.645-0.002,0.967,0.004C159.072,120.374,159.077,120.702,159.077,121.03
			L159.077,121.03z"/>
		<path style="fill:#040404;" d="M38.281,120.044c0.31-0.008,0.62,0.001,0.931,0.005c-0.014,2.129,0.001,4.258-0.008,6.387
			c-0.308-0.002-0.615-0.002-0.922-0.002C38.28,124.304,38.281,122.174,38.281,120.044L38.281,120.044z"/>
		<path style="fill:#040404;" d="M61.832,120.043c0.362,0.005,0.724-0.011,1.086,0.007c0.103,0.112,0.131,0.271,0.195,0.408
			c0.616,1.647,1.235,3.293,1.868,4.935c0.663-1.785,1.349-3.563,2.017-5.349c0.354-0.003,0.709-0.001,1.065-0.001
			c-0.868,2.128-1.736,4.257-2.593,6.391c-0.35,0-0.697,0-1.044,0C63.569,124.3,62.701,122.171,61.832,120.043L61.832,120.043z"/>
		<path style="fill:#040404;" d="M112.699,120.043c0.309,0,0.617-0.002,0.929,0.004c-0.011,2.13,0.002,4.258-0.007,6.389
			c-0.309-0.002-0.614-0.004-0.922-0.002C112.697,124.304,112.699,122.173,112.699,120.043L112.699,120.043z"/>
		<path style="fill:#040404;" d="M154.746,120.043c0.309,0,0.617-0.002,0.93,0.004c-0.011,2.13,0.002,4.258-0.008,6.389
			c-0.309-0.002-0.615-0.004-0.922-0.002C154.745,124.303,154.746,122.173,154.746,120.043L154.746,120.043z"/>
		<path style="fill:#040404;" d="M35.682,117.534c-0.31-0.002-0.619,0-0.928,0.001c0.001,1.174,0.004,2.348-0.003,3.521
			c-1.154-1.473-3.56-1.547-4.882-0.269c-1.392,1.306-1.331,3.821,0.151,5.036c0.633,0.562,1.487,0.771,2.319,0.706
			c0.936,0.087,1.835-0.4,2.411-1.115c0.005,0.339,0.006,0.679,0.006,1.019c0.307-0.002,0.614,0,0.921,0.004
			C35.688,123.47,35.678,120.502,35.682,117.534z M34.081,125.01c-0.83,0.867-2.327,1.004-3.281,0.266
			c-0.922-0.704-1.13-2.061-0.722-3.101c0.247-0.651,0.812-1.167,1.486-1.35c0.967-0.276,2.094,0.06,2.708,0.866
			C35.025,122.646,34.947,124.152,34.081,125.01z"/>
		<path style="fill:#040404;" d="M59.99,120.564c-0.868-0.664-2.048-0.815-3.093-0.562c-0.705,0.176-1.355,0.593-1.781,1.188
			c-0.737,0.996-0.841,2.394-0.345,3.521c0.396,0.89,1.229,1.573,2.181,1.779c0.59,0.061,1.19,0.067,1.78,0.008
			c1.047-0.222,1.957-1.01,2.307-2.021C61.532,123.127,61.166,121.445,59.99,120.564z M59.617,124.997
			c-0.793,0.903-2.297,1.004-3.235,0.271c-0.887-0.705-1.112-2.018-0.722-3.049c0.238-0.658,0.791-1.188,1.466-1.386
			c0.851-0.253,1.854-0.043,2.466,0.621C60.445,122.416,60.462,124.025,59.617,124.997z"/>
		<path style="fill:#040404;" d="M74.981,123.507c0.061-0.996-0.168-2.073-0.91-2.789c-0.986-0.979-2.649-1.081-3.819-0.378
			c-1.382,0.812-1.872,2.664-1.346,4.131c0.327,0.969,1.161,1.738,2.146,2.004c0.462,0.092,0.938,0.053,1.408,0.053
			c0.933,0.005,1.744-0.594,2.306-1.291c-0.235-0.201-0.48-0.391-0.719-0.584c-0.568,0.837-1.661,1.312-2.65,1.015
			c-0.963-0.259-1.619-1.19-1.72-2.158C71.445,123.504,73.213,123.507,74.981,123.507z M69.695,122.727
			c0.087-1.051,1.035-1.9,2.065-1.989c0.64-0.046,1.339,0.15,1.755,0.665c0.324,0.363,0.424,0.854,0.473,1.324
			C72.558,122.734,71.126,122.73,69.695,122.727z"/>
		<path style="fill:#040404;" d="M96.1,120.045c-0.312-0.002-0.622-0.002-0.932-0.002c0.001,0.205,0.001,0.411,0.001,0.618
			c-1.354-1.09-3.54-1.052-4.763,0.223c-1.405,1.448-1.147,4.175,0.622,5.216c0.753,0.518,1.697,0.453,2.565,0.416
			c0.587-0.05,1.11-0.358,1.577-0.697c-0.002,0.203-0.002,0.408-0.001,0.613c0.306,0,0.612,0.004,0.919,0.008
			C96.108,124.309,96.085,122.177,96.1,120.045z M94.396,125.241c-0.858,0.698-2.22,0.683-3.06-0.041
			c-0.815-0.72-1.021-1.968-0.649-2.963c0.234-0.649,0.774-1.188,1.438-1.395c0.905-0.284,2.001-0.036,2.6,0.729
			C95.552,122.632,95.456,124.367,94.396,125.241z"/>
		<path style="fill:#040404;" d="M121.333,120.634c-0.868-0.713-2.088-0.896-3.161-0.631c-0.682,0.175-1.318,0.556-1.746,1.119
			c-1.16,1.473-0.857,3.937,0.771,4.946c0.781,0.549,1.773,0.488,2.679,0.44c1.065-0.153,1.998-0.938,2.39-1.935
			C122.779,123.241,122.48,121.552,121.333,120.634z M120.584,125.27c-0.829,0.644-2.098,0.647-2.93,0.006
			c-0.949-0.743-1.155-2.176-0.656-3.235c0.264-0.581,0.785-1.032,1.396-1.207c0.853-0.251,1.862-0.039,2.467,0.636
			C121.798,122.525,121.713,124.38,120.584,125.27z"/>
		<path style="fill:#040404;" d="M140.215,120.626c-0.871-0.717-2.095-0.886-3.17-0.623c-0.766,0.19-1.457,0.67-1.882,1.338
			c-1.005,1.511-0.604,3.854,1.017,4.775c0.758,0.511,1.707,0.442,2.574,0.394c1.133-0.162,2.123-1.033,2.467-2.122
			C141.656,123.087,141.312,121.496,140.215,120.626z M139.771,124.994c-0.772,0.886-2.226,1.002-3.168,0.326
			c-0.967-0.701-1.207-2.111-0.762-3.178c0.244-0.625,0.784-1.112,1.426-1.307c0.853-0.258,1.86-0.05,2.476,0.615
			C140.596,122.415,140.615,124.021,139.771,124.994z"/>
		<path style="fill:#040404;" d="M171.76,123.507c0.078-0.851-0.013-1.76-0.556-2.455c-1.042-1.446-3.368-1.538-4.622-0.321
			c-1.527,1.399-1.354,4.229,0.426,5.348c0.781,0.56,1.782,0.484,2.689,0.416c0.779-0.13,1.404-0.668,1.91-1.244
			c-0.233-0.204-0.473-0.404-0.715-0.598c-0.561,0.804-1.59,1.283-2.562,1.039c-1.004-0.228-1.708-1.185-1.812-2.181
			C168.266,123.502,170.012,123.508,171.76,123.507z M166.533,122.729c0.1-1.229,1.375-2.17,2.58-1.975
			c0.527,0.067,1.049,0.333,1.351,0.784c0.257,0.343,0.315,0.774,0.367,1.188C169.398,122.734,167.967,122.729,166.533,122.729z"/>
		<path style="fill:#040404;" d="M168.66,95.175c-1.855-1.873-4.278-3.073-6.752-3.908c-3.334-1.159-6.904-1.425-10.213-2.659
			c-1.084-0.411-2.162-0.951-2.949-1.821c-1.049-1.158-1.275-2.942-0.645-4.355c0.403-0.903,1.188-1.592,2.072-2.01
			c1.465-0.686,3.129-0.788,4.721-0.665c1.621,0.12,3.267,0.651,4.477,1.769c1.049,0.948,1.708,2.269,1.975,3.646
			c0.041,0.358,0.297,0.74,0.7,0.705c2.595,0.026,5.188,0.066,7.784,0.061c0.369,0.048,0.723-0.267,0.617-0.651
			c-0.297-2.069-1.02-4.096-2.203-5.828c-1.428-2.111-3.568-3.679-5.926-4.613c-2.178-0.881-4.524-1.257-6.86-1.388h-2.685
			c-2.871,0.152-5.785,0.569-8.424,1.768c-1.926,0.864-3.681,2.212-4.783,4.033c-1.084,1.737-1.506,3.806-1.529,5.833
			c-1.396-2.854-3.491-5.348-5.993-7.298c-3.329-2.62-7.487-4.109-11.71-4.336h-2.195c-2.902,0.175-5.768,0.963-8.332,2.335
			c-3.764,2.012-6.912,5.159-8.906,8.933c-0.33-1.596-0.846-3.17-1.689-4.574c-1.114-1.918-2.792-3.485-4.739-4.539
			c-2.571-1.415-5.514-1.984-8.418-2.155h-2.796c-2.107,0.124-4.22,0.369-6.247,0.979c-2.351,0.696-4.633,1.899-6.198,3.828
			c-0.895,1.074-1.479,2.367-1.863,3.702c0.001-2.198-0.002-4.397,0.003-6.596c-0.004-0.242-0.005-0.524-0.215-0.688
			c-0.174-0.195-0.451-0.179-0.689-0.184c-2.347,0.011-4.695-0.006-7.042,0.008c-0.352-0.021-0.635,0.302-0.646,0.638
			c-0.037,0.632,0.013,1.266-0.014,1.899c0.014,0.163-0.046,0.287-0.184,0.373c-0.24-0.102-0.449-0.261-0.662-0.409
			c-2.832-1.99-6.167-3.34-9.641-3.552h-1.855c-1.885,0.106-3.763,0.429-5.549,1.047c-3.107,1.07-5.905,2.952-8.184,5.307
			c-2.68,2.692-4.584,6.165-5.323,9.897c-0.235,1.114-0.35,2.246-0.431,3.379v2.31c0.14,2.551,0.671,5.095,1.724,7.431
			c1.667,3.698,4.476,6.844,7.856,9.063c3.231,2.12,7.117,3.15,10.968,3.106c3.851,0.035,7.624-1.421,10.638-3.779
			c0.167-0.112,0.472-0.428,0.622-0.128c0.075,0.736-0.013,1.479,0.036,2.219c0.011,0.328,0.291,0.65,0.634,0.637
			c2.438,0.007,4.876,0.008,7.313,0c0.374,0.012,0.671-0.355,0.64-0.717c0.012-2.164-0.005-4.328,0.007-6.492
			c0.72,1.529,1.65,2.978,2.896,4.134c2.087,1.996,4.853,3.136,7.66,3.667c2.34,0.46,4.736,0.504,7.112,0.443
			c2.512-0.114,5.027-0.493,7.411-1.312c1.895-0.648,3.714-1.602,5.191-2.967c1.424-1.307,2.432-3.043,2.887-4.918
			c0.635,0.914,1.32,1.792,2.08,2.604c2.756,3.016,6.438,5.165,10.425,6.055c4.524,1.035,9.415,0.662,13.622-1.354
			c3.939-1.869,7.23-5.028,9.357-8.827c0.584,2.271,1.629,4.463,3.268,6.159c1.392,1.478,3.158,2.569,5.056,3.271
			c3.281,1.231,6.843,1.4,10.312,1.285c2.854-0.144,5.724-0.625,8.375-1.721c2.045-0.847,3.972-2.113,5.312-3.9
			c1.168-1.541,1.793-3.438,1.942-5.354v-1.826C171.646,99.564,170.553,97.008,168.66,95.175z M58.455,102.071
			c-1.086,1.979-2.877,3.546-4.969,4.387c-2.681,1.083-5.779,1.233-8.497,0.194c-2.376-0.883-4.39-2.646-5.65-4.838
			c-1.554-2.665-2.049-5.84-1.82-8.888c0.26-3.084,1.436-6.156,3.601-8.41c1.554-1.629,3.646-2.731,5.871-3.086
			c2.482-0.38,5.102-0.062,7.37,1.037c1.973,0.962,3.555,2.645,4.47,4.63c0.985,2.114,1.331,4.466,1.368,6.78
			C60.236,96.684,59.843,99.59,58.455,102.071z M92.134,105.459c-0.581,1.028-1.553,1.796-2.64,2.234
			c-1.337,0.561-2.809,0.662-4.241,0.615c-2.136-0.062-4.38-0.612-5.988-2.095c-1.242-1.114-1.96-2.708-2.247-4.332
			c-0.033-0.313-0.246-0.667-0.604-0.647c-2.487-0.08-4.976-0.049-7.463-0.125c-0.012-4.283,0.013-8.567-0.012-12.851
			c0.283,0.841,0.609,1.677,1.112,2.414c0.944,1.439,2.347,2.516,3.851,3.316c2.817,1.492,5.973,2.133,9.071,2.75
			c2.352,0.493,4.752,0.956,6.92,2.032c1.253,0.632,2.476,1.62,2.819,3.045C92.962,103.044,92.748,104.367,92.134,105.459z
			 M98.733,94.735c-1.867-1.68-4.179-2.779-6.548-3.555c-2.515-0.844-5.152-1.195-7.708-1.873c-1.354-0.362-2.714-0.774-3.925-1.493
			c-0.9-0.538-1.709-1.327-2.041-2.345c-0.39-1.182-0.279-2.564,0.444-3.599c0.618-0.915,1.628-1.487,2.667-1.8
			c1.413-0.408,2.912-0.433,4.366-0.255c1.498,0.192,2.988,0.778,4.068,1.859c0.966,0.926,1.564,2.186,1.818,3.49
			c0.045,0.342,0.263,0.719,0.65,0.711c2.605,0.029,5.211,0.062,7.816,0.067C99.173,88.71,98.664,91.736,98.733,94.735z
			 M129.076,101.768c-1.006,1.899-2.633,3.446-4.542,4.426c-2.194,1.107-4.751,1.381-7.164,1.005
			c-2.017-0.314-3.933-1.226-5.44-2.599c-1.539-1.341-2.576-3.178-3.189-5.105c-0.75-2.386-0.928-4.934-0.641-7.414
			c0.348-2.712,1.324-5.452,3.26-7.445c1.732-1.832,4.121-3.023,6.631-3.283c2.123-0.232,4.326,0.052,6.264,0.979
			c2.064,0.998,3.818,2.653,4.885,4.69c1.09,2.068,1.604,4.413,1.656,6.741C130.87,96.511,130.385,99.326,129.076,101.768z
			 M160.564,106.72c-1.168,1.009-2.715,1.454-4.229,1.566c-2.07,0.114-4.234-0.06-6.105-1.027c-1.545-0.778-2.746-2.18-3.32-3.809
			c-0.26-0.609-0.32-1.276-0.525-1.899c-0.214-0.443-0.773-0.293-1.168-0.346c-2.082-0.006-4.164-0.067-6.244-0.062
			c1.066-3.212,1.307-6.664,0.881-10.012c1.428,1.873,3.568,3.031,5.734,3.846c3.6,1.368,7.477,1.694,11.152,2.78
			c1.404,0.432,2.816,0.958,3.975,1.884c0.771,0.611,1.377,1.481,1.523,2.468C162.461,103.79,161.872,105.605,160.564,106.72z"/>
	</g>
</g>
<g id="Guides">
</g>
</svg>
