<?xml version="1.0" encoding="utf-8"?>
<!-- Generator: Adobe Illustrator 19.2.1, SVG Export Plug-In . SVG Version: 6.00 Build 0)  -->
<svg version="1.1" id="Layer_1" xmlns="http://www.w3.org/2000/svg" xmlns:xlink="http://www.w3.org/1999/xlink" x="0px" y="0px"
	 viewBox="0 0 775.4 775.4" style="enable-background:new 0 0 775.4 775.4;" xml:space="preserve">
<style type="text/css">
	.st0{fill:#FFFFFF;}
	.st1{fill:#6857B2;}
</style>
<circle id="XMLID_1_" class="st0" cx="387.7" cy="387.7" r="387.7"/>
<g id="XMLID_3_">
	<path id="XMLID_4_" class="st1" d="M718.1,280.3c-15.7,11.1-40.7,17.1-76.8,17.1c-39.1,0-72.1-19.1-106.8-39.1
		c-42.6-24.3-81.6-52.1-151.1-52.1c-88.6,0-138.1,42.6-170.2,78.2c-29.5,33-61.7,87.7-57.3,130.3c2.6,26.1,10.4,44.3,30.4,53.9
		c17.4,8.7,26.1,10.4,44.3,10.4l28.7-0.9l89.5-139H412l-86.9,139l140.7-2.6L445,509.3l-132,2.6L207.1,684.6
		c52.6,32.1,114.4,50.6,180.6,50.6c191.9,0,347.4-155.6,347.4-347.4C735.1,350.2,729.1,314.1,718.1,280.3z"/>
	<path id="XMLID_6_" class="st1" d="M244.4,512.8h-13.9c-20-0.9-57.3-2.6-80.8-13.9c-30.4-14.8-48.6-42.6-52.1-80.8
		c-4.3-45.2,20.8-107.7,64.3-155.5c52.1-57.3,134.6-89.5,213.7-89.5c78.2,0,132.9,31.3,176.3,56.5c32.1,18.2,59.9,34.7,89.5,34.7
		c34.4,0,45.8-24.8,48.6-48c-59.9-105.1-172.8-176-302.3-176c-191.9,0-347.4,155.6-347.4,347.4c0,104.5,46.2,198.2,119.3,261.9
		L244.4,512.8z"/>
</g>
</svg>
