<?xml version="1.0" encoding="utf-8"?>
<!-- Generator: Adobe Illustrator 19.2.1, SVG Export Plug-In . SVG Version: 6.00 Build 0)  -->
<svg version="1.1" id="Layer_1" xmlns="http://www.w3.org/2000/svg" xmlns:xlink="http://www.w3.org/1999/xlink" x="0px" y="0px"
	 viewBox="0 0 152.7 75" style="enable-background:new 0 0 152.7 75;" xml:space="preserve">
<style type="text/css">
	.st0{fill:#FF5792;}
</style>
<g>
	<polygon class="st0" points="108.7,39.5 111,39.5 108.7,39.5 	"/>
	<polygon class="st0" points="117.9,39.5 115.2,43.8 117.8,39.5 	"/>
	<polygon class="st0" points="117.9,39.5 117.8,39.5 111,39.5 	"/>
	<path class="st0" d="M58.4,12.5c-13.1-7.5-33.3-8.2-44,5.7C3.7,32.1,11,39.5,19.2,39.5h6.1L36.5,22h8.9L34.5,39.5
		c6.5,0,12.3,0,12.3,0l-2.9,4.7c0,0-5.8,0-12.4,0L12.5,75l-9.8,0l19.6-30.8h-6C0.8,44.2-6,31.9,6.4,16.1C25.6-8.6,56.5,1.3,63,5.7
		c6.5,4.4,15.8,5.8,21.2,5.8c10.6,0.1,7.6-6.2,7.6-6.2C106.4,18.9,79,24.3,58.4,12.5z"/>
	<polygon class="st0" points="93.6,70.3 111.7,70.3 108.8,75 80.9,75 105.7,44.2 87.4,44.2 90.3,39.5 117.8,39.5 	"/>
	<path class="st0" d="M75.2,53.2l8.5-13.7l-26.8,0c-2.6,0-5,1.3-6.4,3.5l-13,20.4c-3.2,5,0.4,11.6,6.4,11.6l17.9,0l7.7-12.4
		c0,0-3.1,11.3,6.4,12.4l4.6-7.6C80.4,67.4,70,67,75.2,53.2z M54.9,70.3l-7,0c-2.2,0-3.6-2.5-2.4-4.3l12-19.3c1-1.5,2.6-2.5,4.5-2.5
		h9.7L54.9,70.3z"/>
	<polygon class="st0" points="128.3,70.3 146.8,70.3 143.9,75 115.6,75 140.4,44.2 122.1,44.2 125,39.5 152.6,39.5 152.6,39.5
		152.6,39.5 149.7,44.2 	"/>
</g>
</svg>
