<?xml version="1.0" encoding="utf-8"?>
<!-- Generator: Adobe Illustrator 19.0.0, SVG Export Plug-In . SVG Version: 6.00 Build 0)  -->
<svg version="1.1" id="Layer_1" xmlns="http://www.w3.org/2000/svg" xmlns:xlink="http://www.w3.org/1999/xlink" x="0px" y="0px"
	 viewBox="0 0 80 80" style="enable-background:new 0 0 80 80;" xml:space="preserve">
<style type="text/css">
	.st0{fill:#FFFFFF;}
	.st1{fill:#5A1B8C;}
</style>
<circle id="XMLID_1_" class="st0" cx="40" cy="40" r="40"/>
<path id="XMLID_5_" class="st1" d="M39.5,19.1c8,0,12.5,3.2,17.4,6c4,2.3,7.8,4.5,12.3,4.5c4.2,0,7.1-0.7,8.9-2
	c-0.8-2.6-1.9-5.1-3.3-7.4c-0.3,2.7-1.6,5.6-5.6,5.6c-3.4,0-6.6-1.9-10.3-4c-5-2.9-11.3-6.5-20.3-6.5c-9.1,0-18.6,3.7-24.6,10.3
	c-5,5.5-7.9,12.7-7.4,17.9c0.4,4.4,2.5,7.6,6,9.3c2.7,1.3,7,1.5,9.3,1.6h0l1.6,0l-9.8,15.8c1.7,1.5,3.5,2.8,5.5,4l12.2-19.9L46.6,54
	l2.4-3.9l-16.2,0.3l10-16h-7.3L25.2,50.4l-3.3,0.1c-2.1,0-3.1-0.2-5.1-1.2c-2.3-1.1-3.2-3.2-3.5-6.2c-0.5-4.9,3.2-11.2,6.6-15
	C23.6,24,29.3,19.1,39.5,19.1z"/>
</svg>
