<?xml version="1.0" encoding="utf-8"?>
<!-- Generator: Adobe Illustrator 19.0.0, SVG Export Plug-In . SVG Version: 6.00 Build 0)  -->
<svg version="1.1" id="Layer_1" xmlns="http://www.w3.org/2000/svg" xmlns:xlink="http://www.w3.org/1999/xlink" x="0px" y="0px"
	 viewBox="-3 18.2 72.5 44.8" style="enable-background:new -3 18.2 72.5 44.8;" xml:space="preserve">
<style type="text/css">
	.st0{fill:#5A1B8C;}
	.st1{fill:#FFFFFF;}
</style>
<g>
	<g>
		<g>
			<path id="XMLID_1_" class="st0" d="M26.6,52.9L26.6,52.9c0.1-1.6,0.5-2.8,0.9-3.8C26.8,50.2,26.6,51.5,26.6,52.9z"/>
			<path class="st1" d="M28,52.9h-2.8v-0.1c0,0,0,0,0,0c0-1.7,0.4-3.2,1.1-4.4l2.5,1.3C28.3,50.7,28,51.7,28,52.9
				C28,52.9,28,52.9,28,52.9z"/>
		</g>
		<g>
			<path class="st1" d="M69,45.2c0.1-0.9-0.1-1.9-0.7-2.8l-0.1-0.1c-0.6-0.8-1.6-1.3-2.7-1.3H53.5l-0.1,0.1c-0.3-0.1-0.7-0.1-1-0.1
				H40.3l-0.2,0.5c-0.3-0.2-0.7-0.3-1.2-0.3c-0.1,0-0.2,0-0.3,0c-0.6-0.1-1.8-0.2-3.3-0.2h-1c-0.8,0-1.7,0-2.6,0.1
				c0.1-0.3,0.2-0.4,0.2-0.4l1.1-2.1l-9.9,0.2l5.9-9.3H18.2l-6.3,9.5l-0.4,0c-0.8,0-0.9,0-1.8-0.4c-0.2-0.1-0.3-0.8-0.4-1.3
				c-0.1-1.6,1.2-4.4,3.1-6.7c1.9-2.2,4.5-4.4,9.4-4.4c3.5,0,5.5,1.1,8.2,2.8l1,0.6c2.2,1.2,5,2.8,8.3,2.8c4.7,0,7.7-1.4,8.8-4.1
				c1.7-4.1-2.5-7.8-3.9-8.9l-1.5-1.1l-3.3,1.9l0.4,2.1c0.2,0.7,0.1,1.9-0.1,2.4c0,0-0.1,0-0.3,0c-1.1,0-2.5-0.7-4-1.6l-1.3-0.7
				c-3.1-1.7-7-3.8-12.6-3.8c-6.3,0-12.5,2.6-16.5,7c-3.5,3.9-5.4,8.7-5.1,12.7c0.4,3.7,2.2,6.3,5.2,7.6c0.8,0.4,1.7,0.7,2.8,0.9
				L-2.6,63H8.7l9.9-16.2l5.4-0.1c-0.5,0.9-0.9,1.9-1.2,3l-0.3,1.5c-0.1,0.7-0.1,1.4-0.1,2.1c0.1,1.1,0.3,4.3,3.1,6.2
				c1.4,1,2.7,1.1,3.6,1.1c2.1,0,3.3-0.4,4.4-0.8c0.2-0.1,0.4-0.2,0.6-0.3c0.7,0.4,1.4,0.6,2.3,0.6H37l2.2-1
				c0.5,0.3,1.1,0.5,1.7,0.5h11.7l0.1-0.3c0.4,0.2,0.8,0.3,1.3,0.3H66l2.5-7.7h-4.1l4.1-3.8L69,45.2z M40.7,48.3h2.8L40,51.7
				l-0.2-0.5L40.7,48.3z M52.4,52.1h-1.2l4-3.7l1.2,0L52.4,52.1z"/>
		</g>
	</g>
	<path id="XMLID_2_" class="st0" d="M45.3,27.1c-0.7,1.7-2.7,2.4-6.2,2.4c-2.6,0-4.9-1.3-7.2-2.6c-2.8-1.7-5.5-3.5-10.2-3.5
		c-6,0-9.3,2.9-11.5,5.3c-2,2.2-4.1,5.9-3.8,8.8c0.2,1.8,0.7,3,2.1,3.6c1.2,0.6,1.8,0.7,3,0.7l2-0.1l6.1-9.4h4.3L18,41.7l9.4-0.2
		L26,43.9L17,44L7.1,60.2H2.5l10-16.2h-0.9l0,0c-1.4,0-3.8-0.1-5.4-0.9c-2.1-0.9-3.4-2.8-3.6-5.4C2.2,34.6,4,30.4,6.9,27.2
		c3.5-3.9,9.1-6.1,14.4-6.1c5.2,0,8.9,2.1,11.9,3.8c2.1,1.2,4,2.3,6.1,2.3c4.3,0,3.2-5.8,3.2-5.8C42.7,21.8,46.4,24.7,45.3,27.1z
		 M51.5,54.9H44l8.7-8l0.5-2.1c0.1-0.5-0.2-0.9-0.7-0.9H42.3l-0.7,1.7h9.1l-9.8,9.2L40.6,56c-0.1,0.4-0.1,0.9,0.4,0.9h9.8L51.5,54.9
		z M64.6,54.9h-7.5l8.7-8l0.5-2.1c0.1-0.5-0.2-0.9-0.7-0.9H55.3l-0.7,1.7h9.1l-9.8,9.1L53.6,56c-0.1,0.4-0.1,0.9,0.4,0.9h9.9
		L64.6,54.9z M38,54.2l0.9,2.1l-2.5,1.1h-0.2c-0.5,0-1-0.2-1.3-0.6c-0.2-0.3-0.4-0.6-0.6-0.9c-0.7,0.6-1.2,1-2.1,1.4
		c-0.7,0.3-1.6,0.6-3.3,0.6c-0.7,0-1.3-0.1-2-0.6c-1.6-1.1-1.9-2.9-2-4.1c-0.1-3.7,1.8-6.3,3.4-7.7c1.8-1.7,4.5-1.5,6.7-1.5
		c2.2,0,3.5,0.2,3.5,0.2c0.3,0,0.3,0.5,0.2,0.7l-2.8,8.3c0,0.6,0,1.2,0.1,1.7L38,54.2z M36.2,45.8c-2.8-0.3-4.4,0.2-5.2,0.8
		c-1.1,0.9-2.7,2.9-3,6.3c-0.1,1.2,0.2,2.3,0.8,2.8c0.3,0.2,0.9,0.7,2.2,0.2c1.7-0.7,2.5-2,2.8-2.9C34.2,52.1,36.2,45.8,36.2,45.8z"
		/>
</g>
</svg>
