<?xml version="1.0" encoding="utf-8"?>
<!-- Generator: Adobe Illustrator 19.2.1, SVG Export Plug-In . SVG Version: 6.00 Build 0)  -->
<svg version="1.1" id="Layer_1" xmlns="http://www.w3.org/2000/svg" xmlns:xlink="http://www.w3.org/1999/xlink" x="0px" y="0px"
	 viewBox="0 0 775.4 775.4" style="enable-background:new 0 0 775.4 775.4;" xml:space="preserve">
<style type="text/css">
	.st0{fill:#FFFFFF;}
	.st1{fill:#FF5792;}
</style>
<circle id="XMLID_1_" class="st0" cx="387.7" cy="387.7" r="387.7"/>
<circle class="st1" cx="387.8" cy="387.7" r="347.4"/>
<path class="st0" d="M579.7,309.3c-5.9-8.5-11.7-17-17.3-25.7c-9.2-14.3-18.5-28.7-27.4-43.3c-9.8-16.1-23.5-27.7-41.4-33.3
	c-16.5-5.1-33.7-8.4-50.3-13.2c0,0-0.1,0-0.1,0c-3.7-1.1-7.6,1-8.9,4.6c-6.7,19.3-25,33.1-46.6,33.1c-23.7,0-43.5-16.8-48.3-39.1
	c-0.6,0.1-1.3,0.2-2.1,0.4c-15.6,4.1-31.4,7.7-47.1,11.7c-16.6,4.2-31.6,11.5-42.2,25.4c-5,6.6-9.3,13.8-13.9,20.8
	c-12.8,19.5-25.6,39-38.5,58.4c-1.6,2.4-0.9,5.5,1.6,7c15.9,9.6,31.7,19.4,47.6,29.2c3,1.9,5.2,1.9,7.4-1.4
	c6.9-10.6,13.9-21.1,20.9-31.6c2.4-3.6,5.1-7.1,7.6-10.7c1,0.3,0.9,0.3,1.9,0.6c0,5.4,0,10.8,0,16.2c0,85.7-0.1,171.3-0.1,257
	c0,7.3,0.1,7.3,7.1,7.3c65,0,130,0,195,0c8.3,0,8.3,0,8.3-8.2c0-85.5-0.1-171-0.1-256.5c0-5.2,0-10.5,0-15.7
	c0.9-0.3,0.9-0.3,1.8-0.6c1.2,1.5,2.6,2.8,3.7,4.4c8.4,12.5,16.7,25,25,37.7c2.6,3.9,5.2,3.6,9.8-0.2c12.5-10.4,26.3-19.2,41.2-25.6
	C581.4,315,582.5,313.3,579.7,309.3z"/>
</svg>
