<?xml version="1.0" encoding="utf-8"?>
<!-- Generator: Adobe Illustrator 20.1.0, SVG Export Plug-In . SVG Version: 6.00 Build 0)  -->
<svg version="1.1" id="Layer_1" xmlns="http://www.w3.org/2000/svg" xmlns:xlink="http://www.w3.org/1999/xlink" x="0px" y="0px"
	 viewBox="0 0 24 24" style="enable-background:new 0 0 24 24;" xml:space="preserve">
<style type="text/css">
	.st0{fill:#FFFFFF;}
</style>
<path class="st0" d="M12,22.2c-2.1,0-4.3,0-6.4,0c-0.3,0-0.5-0.2-0.6-0.4c0-0.1,0-0.1,0-0.2c0-1.2,0-2.4,0-3.6c0-1.1,0-2.3,0-3.4
	c0-1.2,0-2.3,0-3.5c0-0.1,0-0.2-0.2-0.2c-0.8,0-1.7,0-2.5,0c-0.4,0-0.6-0.2-0.7-0.6c0-0.1-0.1-0.2-0.1-0.4c0-0.1-0.1-0.2-0.1-0.3
	C1.3,9.5,1.2,9.3,1.2,9.1C1.1,8.9,1,8.6,1,8.4C0.9,8.2,0.8,8,0.8,7.8C0.7,7.6,0.6,7.4,0.6,7.2C0.5,7,0.4,6.9,0.4,6.7
	c0-0.2-0.1-0.3-0.1-0.5c0-0.1-0.1-0.2-0.1-0.4c0-0.1,0-0.1-0.1-0.2c0,0,0-0.1,0-0.1c0-0.2,0-0.4,0.1-0.5c0-0.1,0.1-0.2,0.2-0.2
	c0.1-0.1,0.3-0.1,0.4-0.2C0.9,4.6,1,4.5,1.2,4.5c0.2-0.1,0.3-0.1,0.5-0.2C1.9,4.2,2.1,4.1,2.3,4C2.4,4,2.6,3.9,2.8,3.8
	C3,3.8,3.2,3.7,3.4,3.6C3.6,3.5,3.8,3.4,4,3.3c0.2-0.1,0.4-0.2,0.6-0.2C4.8,3,5,2.9,5.2,2.8c0.1,0,0.2-0.1,0.3-0.1
	C5.7,2.6,5.9,2.6,6,2.5c0.2-0.1,0.5-0.2,0.7-0.3C6.9,2.2,7.2,2.1,7.4,2c0.1-0.1,0.3-0.1,0.4-0.2c0.2-0.1,0.4-0.1,0.6,0
	C8.8,2,9.2,2.2,9.6,2.3c0.1,0,0.2,0.1,0.4,0.1c0.2,0,0.4,0.1,0.6,0.1c0,0,0.1,0,0.1,0c0,0,0.1,0,0.1,0c0.1,0,0.1,0,0.2,0
	c0.1,0,0.3,0,0.4,0c0.4,0,0.9,0,1.3,0c0.3,0,0.5,0,0.8-0.1c0.2,0,0.5-0.1,0.7-0.2c0.4-0.1,0.7-0.3,1.1-0.4c0.2-0.1,0.3-0.2,0.5-0.2
	c0.2,0,0.3,0,0.5,0c0.2,0,0.3,0.1,0.5,0.2c0.1,0,0.2,0.1,0.3,0.1c0.2,0.1,0.5,0.2,0.7,0.3c0.2,0.1,0.3,0.1,0.5,0.2
	c0.2,0.1,0.3,0.1,0.5,0.2c0.2,0.1,0.5,0.2,0.7,0.3c0.2,0.1,0.5,0.2,0.7,0.3c0.1,0,0.3,0.1,0.4,0.2c0.2,0.1,0.4,0.2,0.6,0.3
	c0.2,0.1,0.4,0.2,0.6,0.2c0.4,0.1,0.7,0.3,1.1,0.4c0.1,0.1,0.3,0.1,0.4,0.2c0.1,0,0.1,0.1,0.2,0.1c0.1,0,0.1,0,0.2,0.1
	C23.8,4.9,23.9,5,24,5.2c0,0.1,0,0.3,0,0.4c0,0.2-0.1,0.3-0.2,0.5c0,0,0,0.1,0,0.1c0,0.1-0.1,0.3-0.1,0.4c0,0.1-0.1,0.2-0.1,0.3
	c-0.1,0.2-0.1,0.4-0.2,0.6c-0.1,0.2-0.1,0.4-0.2,0.6c0,0.1-0.1,0.3-0.1,0.4c0,0.1-0.1,0.3-0.1,0.4c0,0.1-0.1,0.2-0.1,0.3
	c-0.1,0.2-0.1,0.4-0.2,0.6c-0.1,0.3-0.1,0.6-0.3,0.8c-0.1,0.1-0.3,0.2-0.5,0.2c-0.8,0-1.7,0-2.5,0c-0.2,0-0.2,0-0.2,0.2
	c0,2.3,0,4.5,0,6.8c0,1.2,0,2.5,0,3.7c0,0.1,0,0.2-0.1,0.3c-0.1,0.1-0.1,0.2-0.2,0.2c0,0-0.1,0.1-0.1,0.1c-0.1,0-0.1,0-0.2,0
	c-0.2,0-0.3,0-0.5,0c-0.6,0-1.2,0-1.9,0c-0.4,0-0.7,0-1.1,0C14,22.2,13,22.2,12,22.2C12,22.2,12,22.2,12,22.2
	C9.9,22.2,12,22.2,12,22.2z M12,5.8C12,5.8,12,5.8,12,5.8c0.3,0,0.5,0,0.8,0c0.1,0,0.1,0,0.2,0c0.2-0.1,0.4-0.1,0.7-0.2
	c0.3-0.1,0.7-0.2,1-0.4c0.6-0.3,1.1-0.8,1.4-1.4c0-0.1,0-0.1,0.1-0.2c-0.1,0-0.2,0-0.2,0c-0.1,0-0.2,0-0.2,0.1
	c-0.2,0-0.3,0.1-0.5,0.1c-0.2,0.1-0.5,0.1-0.7,0.1c-0.4,0.1-0.9,0.2-1.3,0.2c-0.7,0-1.4,0-2.1,0C10.6,4.1,10.2,4,9.8,4
	c0,0,0,0-0.1,0C9.5,3.9,9.3,3.8,9,3.8C8.7,3.7,8.5,3.6,8.2,3.5c-0.1,0-0.2,0-0.3,0C8,3.6,8,3.7,8,3.8c0.2,0.5,0.6,0.8,1,1.1
	c0.3,0.2,0.7,0.4,1,0.6c0.1,0,0.3,0.1,0.4,0.1c0.3,0.1,0.6,0.2,0.9,0.2C11.6,5.8,11.8,5.8,12,5.8C12,5.8,11.8,5.8,12,5.8z"/>
</svg>
